<svg width="1920" height="80" viewBox="0 0 1920 80" fill="none" xmlns="http://www.w3.org/2000/svg">
<rect width="1920" height="80" fill="white"/>
<path d="M1010.49 17.3479C754.38 -18.5537 607.729 7.45042 524 39.4893V80H916H988H1617H1819H2040H2444C2419.62 74.7909 2369.02 64.7781 2257.19 46.0923C2011.45 5.0288 1851.62 22.2755 1689.79 59.2327C1542.26 92.9223 1462.57 81.582 1140.53 35.7526L1140.52 35.7511C1101.02 30.1291 1057.86 23.9882 1010.49 17.3479Z" fill="#2CC1C0"/>
<path d="M486.493 17.3479C230.38 -18.5537 83.7291 7.45042 0 39.4893V80H392H464H1093H1295H1516H1920C1895.62 74.7909 1845.02 64.7781 1733.19 46.0923C1487.45 5.0288 1327.62 22.2755 1165.79 59.2327C1018.26 92.9223 938.573 81.582 616.532 35.7526L616.521 35.7511C577.016 30.1291 533.864 23.9882 486.493 17.3479Z" fill="#383681"/>
</svg>
